<svg xmlns="http://www.w3.org/2000/svg" width="600" height="600" viewBox="0 0 600 600" fill="none"><path d="M69 619.8 C84.3 593.5 149.3 506.2 161 462 C172.6 417.7 117.5 386.4 138.9 354.4 C160.4 322.4 266.4 305.6 289.7 270.2 C313.1 234.7 257 179.8 279.1 141.6 C301.3 103.5 398.7 58 422.7 41.2" stroke="#BFE3DE" stroke-width="120" stroke-linecap="round" stroke-linejoin="round" fill="none" /><path d="M70.7 614 C91.3 587 180.3 496.7 194 452.1 C207.7 407.5 138.2 379.5 153 346.1 C167.7 312.7 260.6 286.9 282.5 251.8 C304.4 216.7 261.7 172.4 284.3 135.8 C306.9 99.1 395.8 49.4 418.1 32.2" stroke="#BFE3DE" stroke-width="96" stroke-linecap="round" stroke-linejoin="round" fill="none" opacity=".85"/><path d="M91.2 601.5 C106.2 579.7 171.8 512.7 181.3 470.6 C190.8 428.4 130.5 385.6 148.4 348.8 C166.4 312 263.6 284.4 289.1 249.6 C314.6 214.8 278.2 175.1 301.4 140.1 C324.6 105.1 407.2 56.4 428.3 39.6" stroke="#2B8C86" stroke-width="10" stroke-linecap="round" stroke-linejoin="round" fill="none" opacity=".0"/><path d="M90.1 598.6 C105.1 577.1 170.3 511.2 180.1 469.5 C189.8 427.8 130.4 384.9 148.6 348.5 C166.8 312.2 264 286 289.3 251.5 C314.6 217 276.7 176.3 300.1 141.2 C323.5 106.2 408.3 58 429.9 41.4" stroke="#2B8C86" stroke-width="8" stroke-linecap="round" stroke-linejoin="round" fill="none" opacity=".85"/><path d="M47.9 605 C62.9 583.4 128.3 517 138.3 475.5 C148.4 434 90.2 392.6 108.3 356.2 C126.3 319.8 221.6 291.9 246.7 256.9 C271.8 221.9 235.4 181.5 258.8 146.2 C282.2 110.9 365.7 62 387.1 45.2" stroke="#2B8C86" stroke-width="8" stroke-linecap="round" stroke-linejoin="round" fill="none" /><path d="M49.3 606.7 C64 585.1 127.9 519.1 137.6 477.1 C147.3 435.2 89.2 391.8 107.4 355.1 C125.6 318.4 221.9 291.5 246.9 256.9 C271.9 222.2 233.7 182.4 257.2 147.1 C280.8 111.9 366.3 62.5 388.1 45.6" stroke="#2B8C86" stroke-width="6.4" stroke-linecap="round" stroke-linejoin="round" fill="none" opacity=".85"/><path d="M136.5 595.8 C151.2 574.2 214.7 507.9 224.8 466.3 C234.9 424.8 178.6 383 197 346.4 C215.5 309.9 310.6 281.9 335.6 246.9 C360.6 211.9 323.5 171.6 347 136.4 C370.6 101.2 455.3 52.7 477 36" stroke="#2B8C86" stroke-width="8" stroke-linecap="round" stroke-linejoin="round" fill="none" /><path d="M134.6 595.6 C149.6 574 214.2 507.6 224.7 465.9 C235.1 424.1 178.8 381.6 197.3 344.9 C215.8 308.1 310.8 280.2 335.6 245.3 C360.4 210.3 323 169.9 346.3 135.2 C369.6 100.5 454 53.3 475.5 36.9" stroke="#2B8C86" stroke-width="6.4" stroke-linecap="round" stroke-linejoin="round" fill="none" opacity=".85"/><path d="M161 500.3 C163.2 490 172.1 448.9 174.4 438.6" stroke="#FFFFFF" stroke-width="8" stroke-linecap="round" stroke-linejoin="round" fill="none" /><path d="M159.9 500.8 C162.3 490.7 171.8 450 174.2 439.9" stroke="#FFFFFF" stroke-width="6.4" stroke-linecap="round" stroke-linejoin="round" fill="none" opacity=".85"/><path d="M259 289.4 C265.9 279.6 293.2 240.5 300.1 230.7" stroke="#FFFFFF" stroke-width="8" stroke-linecap="round" stroke-linejoin="round" fill="none" /><path d="M259.5 289.8 C266.3 279.9 293.6 240.3 300.4 230.4" stroke="#FFFFFF" stroke-width="6.4" stroke-linecap="round" stroke-linejoin="round" fill="none" opacity=".85"/><path d="M-16.6 578.8 C-19.7 572.3 -27.8 541.2 -35.3 539.9 C-42.8 538.6 -54.9 559.3 -61.4 571.2 C-67.9 583 -72.3 604.4 -74.4 611" stroke="#7A4E33" stroke-width="9" stroke-linecap="round" stroke-linejoin="round" fill="none" /><path d="M-15.6 578.9 C-18.7 572.4 -26.8 541.1 -34.3 539.8 C-41.7 538.4 -53.5 558.9 -60.3 570.7 C-67.1 582.4 -72.6 603.7 -75 610.3" stroke="#7A4E33" stroke-width="7.2" stroke-linecap="round" stroke-linejoin="round" fill="none" opacity=".85"/><path d="M211.6 580.2 C215.5 573.3 226.9 540.4 234.7 538.8 C242.4 537.1 251.6 558.1 258 570.2 C264.4 582.2 270.6 604.2 273.1 611" stroke="#7A4E33" stroke-width="9" stroke-linecap="round" stroke-linejoin="round" fill="none" /><path d="M212 581 C215.4 574.2 224.8 542.1 232.5 540.4 C240.2 538.8 251.5 559.4 258.1 571.1 C264.7 582.8 269.7 604 272 610.5" stroke="#7A4E33" stroke-width="7.2" stroke-linecap="round" stroke-linejoin="round" fill="none" opacity=".85"/><path d="M70.7 449.6 C67.4 443 58.1 411.8 50.6 410.3 C43.1 408.8 32.5 428.7 25.7 440.6 C18.9 452.4 12.3 474.5 9.6 481.3" stroke="#7A4E33" stroke-width="9" stroke-linecap="round" stroke-linejoin="round" fill="none" /><path d="M68.9 450.7 C65.6 444.1 56.8 413.4 49.4 411.4 C42 409.4 31.3 427.3 24.5 438.9 C17.7 450.4 11.2 473.5 8.6 480.4" stroke="#7A4E33" stroke-width="7.2" stroke-linecap="round" stroke-linejoin="round" fill="none" opacity=".85"/><path d="M270.9 330.9 C274.3 324.1 283.9 291.8 291.2 290.1 C298.6 288.4 308.1 308.9 315 320.8 C321.8 332.7 329.4 354.6 332.3 361.4" stroke="#7A4E33" stroke-width="9" stroke-linecap="round" stroke-linejoin="round" fill="none" /><path d="M272.1 330.3 C275.4 323.5 284.5 291.5 291.7 289.6 C299 287.7 309.1 307.4 315.6 318.9 C322.1 330.5 328.4 352.2 330.9 358.8" stroke="#7A4E33" stroke-width="7.2" stroke-linecap="round" stroke-linejoin="round" fill="none" opacity=".85"/><path d="M40.5 331.2 C36.9 324.3 26.4 292.2 18.6 290.1 C10.8 288 0.5 307 -6.3 318.5 C-13.1 330 -19.4 352.4 -22 359.2" stroke="#7A4E33" stroke-width="9" stroke-linecap="round" stroke-linejoin="round" fill="none" /><path d="M39.4 331.5 C36.2 324.8 27.7 293.2 20 291 C12.3 288.9 0.3 307.2 -6.5 318.6 C-13.4 330.1 -18.6 352.9 -21 359.8" stroke="#7A4E33" stroke-width="7.2" stroke-linecap="round" stroke-linejoin="round" fill="none" opacity=".85"/><path d="M400.7 230.7 C404.2 223.7 413.9 190.8 421.5 189.1 C429 187.4 439.4 208.5 445.8 220.3 C452.3 232 457.8 252.9 460.2 259.5" stroke="#7A4E33" stroke-width="9" stroke-linecap="round" stroke-linejoin="round" fill="none" /><path d="M401.4 229.3 C404.7 222.9 413.8 193 421.3 191.4 C428.9 189.8 440 208.3 446.6 219.9 C453.2 231.4 458.5 253.8 460.8 260.6" stroke="#7A4E33" stroke-width="7.2" stroke-linecap="round" stroke-linejoin="round" fill="none" opacity=".85"/><path d="M208.5 119.8 C204.9 113.1 195 80.8 187 79.4 C179 78 167.1 99.7 160.6 111.4 C154.2 123.2 150.3 143.7 148.2 150.2" stroke="#7A4E33" stroke-width="9" stroke-linecap="round" stroke-linejoin="round" fill="none" /><path d="M207 121 C203.9 114.1 196.1 81.4 188.5 79.6 C180.8 77.9 167.9 98.3 161.1 110.2 C154.2 122.2 149.7 144.4 147.4 151.2" stroke="#7A4E33" stroke-width="7.2" stroke-linecap="round" stroke-linejoin="round" fill="none" opacity=".85"/><path d="M397.9 119.6 C401.2 113 410.7 81.3 418 79.8 C425.3 78.3 435 98.9 441.6 110.4 C448.2 122 454.9 142.8 457.6 149.3" stroke="#7A4E33" stroke-width="9" stroke-linecap="round" stroke-linejoin="round" fill="none" /><path d="M397.5 119.4 C400.9 113 410.4 82.5 417.7 80.8 C425 79.1 434.6 97.7 441.4 109.1 C448.1 120.4 455.5 142.2 458.3 148.9" stroke="#7A4E33" stroke-width="7.2" stroke-linecap="round" stroke-linejoin="round" fill="none" opacity=".85"/><path d="M323.9 18.5 C320.2 12.4 309.5 -17.3 301.9 -18.5 C294.4 -19.7 285.1 0.1 278.5 11.3 C271.9 22.6 264.9 42.7 262.2 49" stroke="#7A4E33" stroke-width="9" stroke-linecap="round" stroke-linejoin="round" fill="none" /><path d="M322 21.2 C318.8 14.4 309.9 -17.6 302.8 -19.8 C295.8 -21.9 286.4 -3.2 279.7 8.5 C273 20.1 265.6 43.1 262.8 50" stroke="#7A4E33" stroke-width="7.2" stroke-linecap="round" stroke-linejoin="round" fill="none" opacity=".85"/></svg>
